Coordinates
version=1
nRows=8
nColumns=40
inDegrees=yes

Units are S.I. units (second, meters, Newtons, ...)
If the header above contains a line with 'inDegrees', this indicates whether rotational values are in degrees (yes) or radians (no).

endheader
time	pelvis_tilt	pelvis_list	pelvis_rotation	pelvis_tx	pelvis_ty	pelvis_tz	hip_flexion_r	hip_adduction_r	hip_rotation_r	knee_angle_r	knee_angle_r_beta	ankle_angle_r	subtalar_angle_r	mtp_angle_r	hip_flexion_l	hip_adduction_l	hip_rotation_l	knee_angle_l	knee_angle_l_beta	ankle_angle_l	subtalar_angle_l	mtp_angle_l	lumbar_extension	lumbar_bending	lumbar_rotation	arm_flex_r	arm_add_r	arm_rot_r	elbow_flex_r	pro_sup_r	wrist_flex_r	wrist_dev_r	arm_flex_l	arm_add_l	arm_rot_l	elbow_flex_l	pro_sup_l	wrist_flex_l	wrist_dev_l
      6.15000000	     44.15848582	      1.34258270	   -177.77537117	      0.42466681	      0.66135152	     -0.60401631	    100.95011317	    -13.30484318	      3.67816497	     65.38618415	      1.14120420	     13.31136775	      0.00000000	      0.00000000	    101.07885069	    -14.48529692	      0.05486210	     63.72793200	      1.11226224	     11.13153112	      0.00000000	      0.00000000	    -36.59388292	     -3.82692937	     -2.70157993	     66.26410578	      1.08214716	    -17.40405346	     14.21196027	     36.17247407	      0.00000000	      0.00000000	     71.09655040	     -2.30653268	     -4.80825481	      9.82579208	     31.20729297	      0.00000000	      0.00000000
      6.15500000	     43.73071390	      1.16391049	   -177.82468537	      0.42436581	      0.66142688	     -0.60421327	    100.64836327	    -13.25240233	      3.83020772	     65.56558490	      1.14433533	     13.45297235	      0.00000000	      0.00000000	    100.66921686	    -14.69099616	     -0.26733129	     63.92806177	      1.11575516	     11.31907842	      0.00000000	      0.00000000	    -36.98063463	     -4.03092620	     -2.84621849	     67.74163855	      1.83863521	    -23.28871516	     12.86062900	     32.78801233	      0.00000000	      0.00000000	     71.57108113	     -2.22592543	     -6.32482884	      9.59178258	     26.25125887	      0.00000000	      0.00000000
      6.16000000	     43.58015421	      1.07234464	   -177.84167856	      0.42456295	      0.66079513	     -0.60431473	    100.66946271	    -13.20274771	      3.99355497	     65.76448544	      1.14780680	     13.45881934	      0.00000000	      0.00000000	    100.63478956	    -14.77527703	     -0.36448262	     64.12120021	      1.11912606	     11.36829608	      0.00000000	      0.00000000	    -36.99132245	     -4.13515713	     -2.88100838	     67.03614134	      1.53047607	    -20.02088496	     13.34684253	     34.24437747	      0.00000000	      0.00000000	     71.12096801	     -2.46347170	     -4.09808888	      9.82533686	     28.81607764	      0.00000000	      0.00000000
      6.16500000	     43.43107925	      1.00530280	   -177.82282307	      0.42472121	      0.66021513	     -0.60435278	    100.67448484	    -13.19250296	      4.13100149	     65.94999307	      1.15104452	     13.51242345	      0.00000000	      0.00000000	    100.59725163	    -14.80595018	     -0.42700490	     64.31073742	      1.12243411	     11.44669235	      0.00000000	      0.00000000	    -37.01434566	     -4.19026369	     -2.95313807	     66.65014928	      1.36732949	    -18.14069726	     13.58889119	     35.07105960	      0.00000000	      0.00000000	     70.91794917	     -2.60630201	     -3.14420552	      9.86880147	     30.21688414	      0.00000000	      0.00000000
      6.17000000	     43.22749135	      1.02922753	   -177.80786231	      0.42479389	      0.65970966	     -0.60432106	    100.59134868	    -13.21588631	      4.12771883	     66.15202045	      1.15457056	     13.65798120	      0.00000000	      0.00000000	    100.53787300	    -14.83842748	     -0.40967544	     64.50306737	      1.12579090	     11.52918841	      0.00000000	      0.00000000	    -37.09130978	     -4.14986594	     -2.93202796	     66.38764449	      1.12448280	    -16.48702163	     13.62684943	     35.67860309	      0.00000000	      0.00000000	     70.76789900	     -2.65438234	     -2.49880095	      9.91673531	     31.22081432	      0.00000000	      0.00000000
      6.17500000	     43.24193112	      1.10827108	   -177.70057433	      0.42489725	      0.65893005	     -0.60399236	    100.71443415	    -13.35846584	      4.09581880	     66.32808947	      1.15764355	     13.68720997	      0.00000000	      0.00000000	    100.70185319	    -14.72092989	     -0.31754446	     64.65312219	      1.12840985	     11.54543115	      0.00000000	      0.00000000	    -36.92775827	     -3.97839006	     -2.99519577	     66.83673654	      1.58802697	    -20.12101902	     13.33910601	     34.20902838	      0.00000000	      0.00000000	     71.30477908	     -2.28722601	     -6.24210679	      9.37438235	     28.60927368	      0.00000000	      0.00000000
      6.18000000	     43.04773153	      1.09322494	   -177.66751711	      0.42500108	      0.65838391	     -0.60400891	    100.67240070	    -13.39671156	      4.12914675	     66.53961233	      1.16133532	     13.74969657	      0.00000000	      0.00000000	    100.64583442	    -14.73717232	     -0.31865283	     64.85558079	      1.13194342	     11.58632483	      0.00000000	      0.00000000	    -36.99434598	     -3.98479895	     -3.02791760	     66.51225138	      1.38558122	    -18.22114274	     13.46514914	     34.91425428	      0.00000000	      0.00000000	     70.90798034	     -2.48570435	     -4.21161722	      9.62049707	     29.89702541	      0.00000000	      0.00000000
      6.18500000	     42.97188813	      1.05151883	   -177.66460558	      0.42509560	      0.65769626	     -0.60401967	    100.73749552	    -13.38956693	      4.21686933	     66.72034961	      1.16448978	     13.79727592	      0.00000000	      0.00000000	    100.68029310	    -14.77669204	     -0.35916858	     65.02817547	      1.13495577	     11.66944932	      0.00000000	      0.00000000	    -36.93840071	     -4.03601687	     -3.01445724	     67.37521350	      1.90636728	    -23.31387271	     12.95469433	     30.16280492	      0.00000000	      0.00000000	     70.80577084	     -2.43812141	     -4.15762804	     10.01623677	     24.67495292	      0.00000000	      0.00000000
